<?xml version="1.0" standalone="no"?>
<!DOCTYPE svg PUBLIC "-//W3C//DTD SVG 20010904//EN"
 "http://www.w3.org/TR/2001/REC-SVG-20010904/DTD/svg10.dtd">
<svg version="1.0" xmlns="http://www.w3.org/2000/svg"
 width="980.000000pt" height="780.000000pt" viewBox="0 0 980.000000 780.000000"
 preserveAspectRatio="xMidYMid meet">
<metadata>
Created by potrace 1.15, written by Peter Selinger 2001-2017
</metadata>
<g transform="translate(0.000000,780.000000) scale(0.100000,-0.100000)"
fill="#000000" stroke="none">
<path d="M4745 7793 c-1120 -38 -2167 -446 -3026 -1180 -146 -125 -397 -375
-523 -523 -1434 -1675 -1594 -4098 -393 -5942 49 -76 92 -138 96 -137 3 0 32
37 63 82 310 445 929 869 1658 1139 256 95 693 219 854 243 25 4 46 10 46 12
0 3 -34 41 -75 85 -245 260 -460 647 -570 1024 -74 254 -105 463 -112 749 -6
266 9 440 57 679 82 404 281 830 533 1141 85 104 280 294 385 374 246 186 525
313 822 373 101 20 143 23 345 23 210 -1 241 -3 355 -28 856 -182 1516 -906
1724 -1893 72 -341 76 -803 10 -1139 -101 -517 -331 -983 -647 -1311 -37 -40
-65 -74 -60 -77 4 -3 35 -10 68 -17 482 -97 1037 -294 1440 -512 450 -244 830
-559 1043 -865 31 -45 60 -82 63 -82 3 -1 32 38 64 87 242 361 466 824 595
1227 286 900 316 1854 85 2760 -263 1035 -862 1968 -1687 2629 -733 589 -1586
946 -2508 1050 -136 16 -510 37 -585 34 -22 -1 -76 -3 -120 -5z"/>
</g>
</svg>
