<?xml version="1.0" encoding="UTF-8"?>
<svg viewBox="0 0 455 210" xmlns="http://www.w3.org/2000/svg">
<g transform="matrix(2.5092 0 0 2.5092 -13.377 -32.104)" featurekey="symbol1" fill="#ffffff">
<g xmlns="http://www.w3.org/2000/svg">
<path d="m57.039 15.584s17.664 22.829 3.072 43.271c-12.047 16.874 4.98 7.075 7.427 8.602 2.444 1.524 2.051 4.588 4.195 5.287 2.142 0.7 4.772-0.606 7.307 0.483 2.533 1.087 4.578 3.795 8.627 3.475v-61.118h-30.628zm13.124 45.924s-0.154 1.574-1.539 1.525c-0.731-0.026-0.363-1.417-0.363-1.417s3.261-19.922-1.176-31.028c0 0 6.79 11.214 3.078 30.92zm10.125 5.013s-0.054 1.212-1.122 1.175c-0.562-0.021-0.34-1.091-0.34-1.091s1.668-15.355-2.222-23.915c0 0 5.712 8.644 3.684 23.831z"/>
<path d="m12.663 15.584v61.118c4.051 0.32 6.094-2.388 8.628-3.475 2.536-1.09 5.163 0.217 7.307-0.483 2.143-0.699 1.751-3.763 4.196-5.287 2.445-1.526 19.473 8.272 7.425-8.602-14.592-20.442 3.07-43.271 3.07-43.271h-30.626zm20.586 15.004c-4.438 11.105-1.178 31.028-1.178 31.028s0.367 1.391-0.363 1.417c-1.384 0.049-1.541-1.525-1.541-1.525-3.712-19.706 3.082-30.92 3.082-30.92zm-9.522 12.102c-3.891 8.56-2.222 23.915-2.222 23.915s0.224 1.07-0.339 1.091c-1.069 0.037-1.122-1.175-1.122-1.175-2.027-15.187 3.683-23.831 3.683-23.831z"/>
<rect x="5.331" y="82.053" width="89.669" height="3.354"/>
</g>
</g>
<g transform="matrix(10.15 0 0 10.15 258.91 -50.823)" featurekey="text1" fill="#ffffff">
<path d="m3.42 13.16v6.84h-2.82v-14.5h3.06l1.58 6.12 1.58-6.12h3.08v14.5h-2.82v-6.84l-1.84 5.8zm13.12 6.84h-3.06v-3.68l-2.78-10.82h3l1.3 6.84 1.32-6.84h3l-2.78 10.82v3.68z"/>
</g>
<g transform="matrix(2.9521 0 0 2.9521 263.23 145.76)" featurekey="text2" fill="#ffffff">
<path d="m0.6 5.5h5.64l0.5 2.7h-3.16v3.44h2.4v2.5h-2.4v3.16h3.04l-0.5 2.7h-5.52v-14.5zm12.18 0h2.94l-2.68 14.5h-3.02l-2.68-14.5h2.94l0.26 1.86 0.98 7.5 1-7.54zm3.74 0h5.64l0.5 2.7h-3.16v3.44h2.4v2.5h-2.4v3.16h3.04l-0.5 2.7h-5.52v-14.5zm7.14 0h2.76l1.48 5.82v-5.82h2.98v14.5h-2.98l-1.56-6.06v6.06h-2.68v-14.5zm14.14 0l0.72 2.7h-1.94v11.8h-2.96v-11.8h-1.94l0.76-2.7h5.36zm4.7 2.54q-0.26 0-0.26 0.28v8.84q0 0.16 0.05 0.23t0.23 0.07h1.1q0.18 0 0.23-0.07t0.05-0.23v-8.84q0-0.28-0.26-0.28h-1.14zm4.34 9.9q0 0.42-0.1 0.79t-0.34 0.65-0.64 0.45-1 0.17h-3.36q-0.6 0-1-0.17t-0.64-0.45-0.34-0.65-0.1-0.79v-10.56q0-0.86 0.47-1.37t1.49-0.51h3.6q1.02 0 1.49 0.51t0.47 1.37v10.56zm4.1-9.9v5h1.42q0.28 0 0.28-0.3v-4.4q0-0.3-0.28-0.3h-1.42zm4.56 6.06q0 0.48-0.33 0.88t-0.97 0.4l1.52 4.62h-3l-1.4-4.62h-0.38v4.62h-2.9v-14.5h5.5q1.02 0 1.49 0.51t0.47 1.37v6.72zm6.68 5.9h-3.06v-3.68l-2.78-10.82h3l1.3 6.84 1.32-6.84h3l-2.78 10.82v3.68z"/>
</g>
</svg>

