<?xml version="1.0" encoding="UTF-8"?>
<svg viewBox="210 0 260 220" xmlns="http://www.w3.org/2000/svg">
  <g transform="matrix(10.684 0 0 10.684 232.59 -53.761)" featurekey="text1" fill="#086788">
    <path d="m3.42 13.16v6.84h-2.82v-14.5h3.06l1.58 6.12 1.58-6.12h3.08v14.5h-2.82v-6.84l-1.84 5.8zm13.12 6.84h-3.06v-3.68l-2.78-10.82h3l1.3 6.84 1.32-6.84h3l-2.78 10.82v3.68z"/>
  </g>
  <g transform="matrix(3.1075 0 0 3.1075 237.14 152.91)" featurekey="text2" fill="#086788">
    <path d="m0.6 5.5h5.64l0.5 2.7h-3.16v3.44h2.4v2.5h-2.4v3.16h3.04l-0.5 2.7h-5.52v-14.5zm12.18 0h2.94l-2.68 14.5h-3.02l-2.68-14.5h2.94l0.26 1.86 0.98 7.5 1-7.54zm3.74 0h5.64l0.5 2.7h-3.16v3.44h2.4v2.5h-2.4v3.16h3.04l-0.5 2.7h-5.52v-14.5zm7.14 0h2.76l1.48 5.82v-5.82h2.98v14.5h-2.98l-1.56-6.06v6.06h-2.68v-14.5zm14.14 0l0.72 2.7h-1.94v11.8h-2.96v-11.8h-1.94l0.76-2.7h5.36zm4.7 2.54q-0.26 0-0.26 0.28v8.84q0 0.16 0.05 0.23t0.23 0.07h1.1q0.18 0 0.23-0.07t0.05-0.23v-8.84q0-0.28-0.26-0.28h-1.14zm4.34 9.9q0 0.42-0.1 0.79t-0.34 0.65-0.64 0.45-1 0.17h-3.36q-0.6 0-1-0.17t-0.64-0.45-0.34-0.65-0.1-0.79v-10.56q0-0.86 0.47-1.37t1.49-0.51h3.6q1.02 0 1.49 0.51t0.47 1.37v10.56zm4.1-9.9v5h1.42q0.28 0 0.28-0.3v-4.4q0-0.3-0.28-0.3h-1.42zm4.56 6.06q0 0.48-0.33 0.88t-0.97 0.4l1.52 4.62h-3l-1.4-4.62h-0.38v4.62h-2.9v-14.5h5.5q1.02 0 1.49 0.51t0.47 1.37v6.72zm6.68 5.9h-3.06v-3.68l-2.78-10.82h3l1.3 6.84 1.32-6.84h3l-2.78 10.82v3.68z"/>
  </g>
</svg>
